<?xml version="1.0" standalone="no"?>
<!DOCTYPE svg PUBLIC "-//W3C//DTD SVG 20010904//EN"
 "http://www.w3.org/TR/2001/REC-SVG-20010904/DTD/svg10.dtd">
<svg version="1.0" xmlns="http://www.w3.org/2000/svg"
 width="70.000000pt" height="70.000000pt" viewBox="0 0 70.000000 70.000000"
 preserveAspectRatio="xMidYMid meet">

<g transform="translate(0.000000,70.000000) scale(0.100000,-0.100000)"
fill="#000000" stroke="none">
<path d="M285 595 c-34 -33 -32 -81 5 -156 l31 -60 -60 31 c-75 37 -123 39
-156 5 -19 -18 -25 -35 -25 -65 0 -87 80 -115 180 -65 28 14 50 23 50 20 0 -3
-11 -28 -25 -55 -49 -96 -20 -170 65 -170 30 0 47 6 65 25 34 33 32 81 -6 156
l-30 61 57 -31 c72 -39 125 -41 159 -6 35 34 35 96 0 130 -33 34 -81 32 -154
-5 l-59 -29 29 52 c56 102 28 187 -61 187 -30 0 -47 -6 -65 -25z m114 -21 c8
-7 14 -26 14 -41 0 -33 -47 -143 -61 -143 -5 0 -23 31 -41 69 -26 57 -30 73
-21 95 16 44 73 55 109 20z m-134 -197 l59 -29 -49 -26 c-69 -34 -102 -43
-131 -32 -50 19 -51 100 -2 120 28 11 46 6 123 -33z m314 17 c19 -18 18 -71
-2 -91 -24 -24 -66 -20 -138 14 l-64 30 75 37 c75 36 100 38 129 10z m-198
-126 c31 -61 39 -96 29 -124 -20 -52 -100 -50 -120 2 -9 22 -5 39 21 95 18 38
36 69 40 69 5 0 18 -19 30 -42z"/>
</g>
</svg>
