<?xml version="1.0" standalone="no"?>
<!DOCTYPE svg PUBLIC "-//W3C//DTD SVG 20010904//EN"
 "http://www.w3.org/TR/2001/REC-SVG-20010904/DTD/svg10.dtd">
<svg version="1.0" xmlns="http://www.w3.org/2000/svg"
 width="70.000000pt" height="70.000000pt" viewBox="0 0 70.000000 70.000000"
 preserveAspectRatio="xMidYMid meet">

<g transform="translate(0.000000,70.000000) scale(0.100000,-0.100000)"
fill="#000000" stroke="none">
<path d="M329 593 c-12 -33 -58 -83 -75 -83 -7 0 -16 -5 -20 -11 -16 -27 53 4
84 36 l32 35 33 -35 c30 -32 99 -63 83 -36 -4 6 -13 11 -20 11 -17 0 -63 50
-75 83 -6 15 -15 27 -21 27 -6 0 -15 -12 -21 -27z"/>
<path d="M115 520 l-29 -31 0 -139 0 -140 32 -32 c38 -39 57 -29 19 10 -28 30
-44 76 -29 86 5 3 15 -1 22 -9 12 -14 40 -21 40 -10 0 3 -12 17 -27 30 l-28
25 25 20 25 20 -25 20 -25 20 28 25 c15 13 27 27 27 30 0 11 -28 4 -40 -10
-21 -25 -33 -17 -26 17 3 18 18 44 31 58 14 14 25 29 25 33 0 15 -17 6 -45
-23z m15 -170 c0 -5 -4 -10 -10 -10 -5 0 -10 5 -10 10 0 6 5 10 10 10 6 0 10
-4 10 -10z"/>
<path d="M540 541 c0 -6 9 -16 19 -23 26 -18 45 -62 37 -84 -6 -15 -8 -16 -24
0 -33 29 -47 17 -16 -15 l29 -30 -25 -20 -25 -19 25 -20 25 -20 -27 -25 c-16
-13 -28 -27 -28 -30 0 -11 28 -4 40 10 21 25 33 17 26 -17 -3 -18 -18 -45 -33
-60 -37 -39 -19 -49 19 -11 l31 31 2 134 c2 105 -1 138 -13 158 -24 39 -62 64
-62 41z m50 -191 c0 -5 -4 -10 -10 -10 -5 0 -10 5 -10 10 0 6 5 10 10 10 6 0
10 -4 10 -10z"/>
<path d="M40 401 c0 -13 29 -35 37 -28 7 8 -15 37 -28 37 -5 0 -9 -4 -9 -9z"/>
<path d="M631 397 c-6 -8 -8 -17 -4 -20 7 -8 33 11 33 24 0 13 -16 11 -29 -4z"/>
<path d="M20 350 c0 -5 11 -10 25 -10 14 0 25 5 25 10 0 6 -11 10 -25 10 -14
0 -25 -4 -25 -10z"/>
<path d="M630 350 c0 -5 11 -10 25 -10 14 0 25 5 25 10 0 6 -11 10 -25 10 -14
0 -25 -4 -25 -10z"/>
<path d="M50 315 c-18 -21 -3 -32 16 -13 10 9 12 18 6 22 -5 3 -15 -1 -22 -9z"/>
<path d="M620 321 c0 -13 29 -35 37 -28 7 8 -15 37 -28 37 -5 0 -9 -4 -9 -9z"/>
</g>
</svg>
