<?xml version="1.0" standalone="no"?>
<!DOCTYPE svg PUBLIC "-//W3C//DTD SVG 20010904//EN"
 "http://www.w3.org/TR/2001/REC-SVG-20010904/DTD/svg10.dtd">
<svg version="1.0" xmlns="http://www.w3.org/2000/svg"
 width="70.000000pt" height="70.000000pt" viewBox="0 0 70.000000 70.000000"
 preserveAspectRatio="xMidYMid meet">

<g transform="translate(0.000000,70.000000) scale(0.100000,-0.100000)"
fill="#000000" stroke="none">
<path d="M340 551 l0 -99 -40 -51 -41 -51 41 -60 c39 -58 40 -60 40 -149 0
-54 4 -91 10 -91 6 0 10 37 10 91 0 89 1 91 40 149 l41 60 -41 51 -40 51 0 99
c0 59 -4 99 -10 99 -6 0 -10 -40 -10 -99z m44 -176 c15 -23 15 -28 1 -55 -9
-17 -18 -30 -20 -30 -3 0 -5 25 -5 55 0 30 2 55 4 55 2 0 11 -11 20 -25z m-44
-30 c0 -50 -11 -58 -28 -20 -9 20 -9 30 0 45 20 31 28 24 28 -25z"/>
</g>
</svg>
