<?xml version="1.0" standalone="no"?>
<!DOCTYPE svg PUBLIC "-//W3C//DTD SVG 20010904//EN"
 "http://www.w3.org/TR/2001/REC-SVG-20010904/DTD/svg10.dtd">
<svg version="1.0" xmlns="http://www.w3.org/2000/svg"
 width="70.000000pt" height="70.000000pt" viewBox="0 0 70.000000 70.000000"
 preserveAspectRatio="xMidYMid meet">

<g transform="translate(0.000000,70.000000) scale(0.100000,-0.100000)"
fill="#000000" stroke="none">
<path d="M213 503 c-3 -7 17 -39 44 -70 27 -32 54 -65 61 -74 10 -13 2 -27
-48 -87 -33 -39 -60 -76 -60 -81 0 -24 22 -8 76 56 31 38 60 69 63 70 3 1 32
-30 64 -68 54 -64 77 -82 77 -60 0 5 -27 42 -60 81 -33 39 -60 74 -60 76 0 2
27 35 60 73 33 39 60 76 60 83 0 18 -270 19 -277 1z m227 -20 c-1 -10 -14 -28
-58 -77 l-33 -38 -37 43 c-73 85 -76 79 32 79 53 0 96 -3 96 -7z"/>
</g>
</svg>
