<?xml version="1.0" standalone="no"?>
<!DOCTYPE svg PUBLIC "-//W3C//DTD SVG 20010904//EN"
 "http://www.w3.org/TR/2001/REC-SVG-20010904/DTD/svg10.dtd">
<svg version="1.0" xmlns="http://www.w3.org/2000/svg"
 width="70.000000pt" height="70.000000pt" viewBox="0 0 70.000000 70.000000"
 preserveAspectRatio="xMidYMid meet">

<g transform="translate(0.000000,70.000000) scale(0.100000,-0.100000)"
fill="#000000" stroke="none">
<path d="M182 354 c-46 -57 -57 -85 -34 -84 4 1 25 25 47 55 22 30 43 55 46
55 4 0 30 -25 58 -56 l51 -56 51 56 c28 31 54 56 58 56 4 0 25 -25 47 -55 40
-55 48 -62 59 -46 6 11 -85 139 -101 140 -6 1 -32 -21 -58 -49 -26 -27 -51
-50 -55 -50 -5 0 -29 23 -55 50 -26 28 -50 50 -54 50 -5 0 -31 -30 -60 -66z"/>
</g>
</svg>
