<?xml version="1.0" standalone="no"?>
<!DOCTYPE svg PUBLIC "-//W3C//DTD SVG 20010904//EN"
 "http://www.w3.org/TR/2001/REC-SVG-20010904/DTD/svg10.dtd">
<svg version="1.0" xmlns="http://www.w3.org/2000/svg"
 width="70.000000pt" height="70.000000pt" viewBox="0 0 70.000000 70.000000"
 preserveAspectRatio="xMidYMid meet">

<g transform="translate(0.000000,70.000000) scale(0.100000,-0.100000)"
fill="#000000" stroke="none">
<path d="M220 650 c0 -5 11 -10 24 -10 14 0 37 -5 51 -10 l26 -10 -21 -27
c-12 -15 -39 -38 -61 -51 l-41 -24 -34 33 c-44 43 -58 29 -15 -15 l33 -34 -24
-41 c-13 -22 -36 -49 -51 -61 l-27 -21 -10 26 c-5 14 -10 37 -10 51 0 13 -4
24 -10 24 -14 0 -12 -76 2 -100 10 -15 10 -26 0 -53 -15 -40 -16 -107 -2 -107
6 0 10 11 10 24 0 14 5 37 10 51 l10 26 27 -21 c15 -11 37 -40 50 -62 l24 -41
-32 -34 c-43 -43 -29 -56 15 -14 l34 33 41 -24 c22 -13 49 -36 61 -51 l21 -27
-26 -10 c-14 -5 -37 -10 -51 -10 -13 0 -24 -4 -24 -10 0 -14 76 -12 100 2 15
10 26 10 53 0 40 -15 107 -16 107 -2 0 6 -11 10 -24 10 -14 0 -37 5 -51 10
l-26 10 21 27 c11 15 40 37 62 50 l41 24 34 -32 c43 -42 56 -29 14 14 l-32 34
24 41 c13 22 35 51 50 62 l27 21 10 -26 c5 -14 10 -37 10 -51 0 -13 5 -24 10
-24 14 0 13 67 -2 107 -10 27 -10 38 0 53 14 24 16 100 2 100 -5 0 -10 -11
-10 -24 0 -14 -5 -37 -10 -51 l-10 -26 -27 21 c-15 12 -38 39 -51 61 l-24 41
33 34 c42 44 29 58 -14 15 l-34 -32 -41 24 c-22 13 -51 35 -62 50 l-21 27 26
10 c14 5 37 10 51 10 13 0 24 5 24 10 0 6 -20 10 -44 10 -25 0 -48 -4 -51 -10
-3 -5 -19 -10 -35 -10 -16 0 -32 5 -35 10 -3 6 -26 10 -51 10 -24 0 -44 -4
-44 -10z m146 -58 c30 -20 18 -72 -16 -72 -22 0 -40 28 -32 50 5 14 21 30 32
30 3 0 10 -4 16 -8z m-16 -95 c21 0 39 7 50 20 13 16 20 19 36 11 30 -16 65
-50 85 -82 17 -28 17 -29 -1 -45 -33 -27 -35 -66 -7 -95 24 -24 24 -25 7 -53
-19 -31 -54 -65 -84 -80 -14 -8 -23 -5 -43 14 -28 28 -67 25 -94 -7 -16 -18
-17 -18 -45 -1 -32 20 -66 55 -81 85 -8 14 -5 23 14 43 28 27 26 67 -6 94 -15
12 -17 20 -9 35 16 30 50 65 82 85 28 17 29 17 46 -3 11 -14 28 -21 50 -21z
m-172 -150 c-2 -16 -11 -23 -34 -25 -33 -3 -49 14 -38 42 14 35 77 20 72 -17z
m416 18 c13 -35 -24 -62 -58 -43 -16 9 -22 39 -9 51 12 13 61 7 67 -8z m-216
-221 c3 -33 -14 -49 -42 -38 -36 14 -20 77 17 72 16 -2 23 -11 25 -34z"/>
</g>
</svg>
