<?xml version="1.0" standalone="no"?>
<!DOCTYPE svg PUBLIC "-//W3C//DTD SVG 20010904//EN"
 "http://www.w3.org/TR/2001/REC-SVG-20010904/DTD/svg10.dtd">
<svg version="1.0" xmlns="http://www.w3.org/2000/svg"
 width="70.000000pt" height="70.000000pt" viewBox="0 0 70.000000 70.000000"
 preserveAspectRatio="xMidYMid meet">

<g transform="translate(0.000000,70.000000) scale(0.100000,-0.100000)"
fill="#000000" stroke="none">
<path d="M314 518 c-15 -24 -44 -69 -66 -101 -21 -32 -38 -62 -38 -67 0 -16
130 -210 140 -210 10 0 113 153 132 196 8 17 -2 38 -57 122 -37 56 -71 102
-76 102 -5 0 -21 -19 -35 -42z m87 -71 c26 -39 50 -78 53 -85 7 -11 -91 -182
-104 -182 -4 0 -84 120 -104 158 -7 11 91 182 104 182 3 0 26 -33 51 -73z"/>
</g>
</svg>
