<?xml version="1.0" standalone="no"?>
<!DOCTYPE svg PUBLIC "-//W3C//DTD SVG 20010904//EN"
 "http://www.w3.org/TR/2001/REC-SVG-20010904/DTD/svg10.dtd">
<svg version="1.0" xmlns="http://www.w3.org/2000/svg"
 width="70.000000pt" height="70.000000pt" viewBox="0 0 70.000000 70.000000"
 preserveAspectRatio="xMidYMid meet">

<g transform="translate(0.000000,70.000000) scale(0.100000,-0.100000)"
fill="#000000" stroke="none">
<path d="M338 368 l-3 -133 -60 -1 c-34 -1 -61 -6 -63 -13 -3 -8 36 -11 137
-11 83 0 141 4 141 10 0 5 -28 10 -62 12 l-63 3 -2 130 c-1 80 -5 131 -12 133
-7 2 -11 -42 -13 -130z"/>
<path d="M210 157 c0 -7 19 -25 42 -40 57 -37 133 -38 195 -2 23 14 43 32 43
40 0 21 -17 19 -42 -5 -50 -46 -136 -46 -194 -1 -31 24 -44 27 -44 8z"/>
</g>
</svg>
