<?xml version="1.0" standalone="no"?>
<!DOCTYPE svg PUBLIC "-//W3C//DTD SVG 20010904//EN"
 "http://www.w3.org/TR/2001/REC-SVG-20010904/DTD/svg10.dtd">
<svg version="1.0" xmlns="http://www.w3.org/2000/svg"
 width="70.000000pt" height="70.000000pt" viewBox="0 0 70.000000 70.000000"
 preserveAspectRatio="xMidYMid meet">

<g transform="translate(0.000000,70.000000) scale(0.100000,-0.100000)"
fill="#000000" stroke="none">
<path d="M50 525 c0 -158 18 -168 22 -12 l3 112 113 3 c155 4 145 22 -13 22
l-125 0 0 -125z"/>
<path d="M400 640 c0 -5 49 -11 113 -12 l112 -3 3 -112 c4 -156 22 -146 22 12
l0 125 -125 0 c-74 0 -125 -4 -125 -10z"/>
<path d="M111 590 c-10 -8 -1 -190 10 -190 5 0 9 38 9 85 l0 85 85 0 c47 0 85
4 85 9 0 10 -177 20 -189 11z"/>
<path d="M488 593 c-113 -5 -115 -23 -3 -23 l85 0 0 -85 c0 -47 4 -85 9 -85 5
0 11 41 13 90 3 93 1 112 -10 108 -4 -1 -46 -4 -94 -5z"/>
<path d="M168 533 c-8 -15 4 -133 13 -133 5 0 9 25 9 55 l0 55 55 0 c30 0 55
5 55 10 0 6 -22 10 -49 10 -27 0 -56 3 -64 6 -8 3 -17 2 -19 -3z"/>
<path d="M453 533 c-70 -5 -68 -23 2 -23 l55 0 0 -55 c0 -30 5 -55 10 -55 6 0
11 25 12 55 0 30 1 61 2 67 1 15 -9 16 -81 11z"/>
<path d="M50 175 l0 -125 125 0 c158 0 168 18 13 22 l-113 3 -3 113 c-4 155
-22 145 -22 -13z"/>
<path d="M108 208 c-2 -51 0 -95 3 -98 12 -9 189 1 189 11 0 5 -38 9 -85 9
l-85 0 0 85 c0 47 -4 85 -9 85 -5 0 -11 -42 -13 -92z"/>
<path d="M168 238 c-2 -35 -2 -65 1 -69 10 -9 131 2 131 12 0 5 -25 9 -55 9
l-55 0 0 55 c0 75 -17 70 -22 -7z"/>
<path d="M510 245 l0 -55 -55 0 c-30 0 -55 -4 -55 -9 0 -10 121 -21 131 -12 9
10 -2 131 -12 131 -5 0 -9 -25 -9 -55z"/>
<path d="M570 215 l0 -85 -85 0 c-47 0 -85 -4 -85 -9 0 -10 181 -20 190 -11 9
9 -1 190 -11 190 -5 0 -9 -38 -9 -85z"/>
<path d="M628 188 l-3 -113 -112 -3 c-156 -4 -146 -22 12 -22 l125 0 0 125 c0
158 -18 168 -22 13z"/>
</g>
</svg>
