<?xml version="1.0" standalone="no"?>
<!DOCTYPE svg PUBLIC "-//W3C//DTD SVG 20010904//EN"
 "http://www.w3.org/TR/2001/REC-SVG-20010904/DTD/svg10.dtd">
<svg version="1.0" xmlns="http://www.w3.org/2000/svg"
 width="70.000000pt" height="70.000000pt" viewBox="0 0 70.000000 70.000000"
 preserveAspectRatio="xMidYMid meet">

<g transform="translate(0.000000,70.000000) scale(0.100000,-0.100000)"
fill="#000000" stroke="none">
<path d="M293 538 c-32 -34 -53 -79 -53 -113 0 -22 12 -44 45 -79 52 -57 56
-83 20 -141 -13 -22 -25 -46 -25 -54 0 -21 46 25 64 64 27 56 21 85 -29 139
-53 58 -56 81 -19 143 30 51 28 74 -3 41z"/>
<path d="M393 538 c-32 -34 -53 -79 -53 -113 0 -22 12 -44 45 -79 52 -57 56
-83 20 -141 -13 -22 -25 -46 -25 -54 0 -21 46 25 64 64 27 56 21 85 -29 139
-53 58 -56 81 -19 143 30 51 28 74 -3 41z"/>
</g>
</svg>
