<?xml version="1.0" standalone="no"?>
<!DOCTYPE svg PUBLIC "-//W3C//DTD SVG 20010904//EN"
 "http://www.w3.org/TR/2001/REC-SVG-20010904/DTD/svg10.dtd">
<svg version="1.0" xmlns="http://www.w3.org/2000/svg"
 width="70.000000pt" height="70.000000pt" viewBox="0 0 70.000000 70.000000"
 preserveAspectRatio="xMidYMid meet">

<g transform="translate(0.000000,70.000000) scale(0.100000,-0.100000)"
fill="#000000" stroke="none">
<path d="M329 477 c-8 -12 -26 -37 -39 -54 -35 -48 -14 -54 25 -8 l34 40 1
-97 0 -97 -35 -3 c-20 -2 -35 -7 -35 -13 0 -15 172 -13 178 3 2 8 -10 12 -42
12 l-46 0 0 98 0 97 33 -39 c48 -57 53 -30 6 32 -44 57 -56 62 -80 29z"/>
</g>
</svg>
