<?xml version="1.0" standalone="no"?>
<!DOCTYPE svg PUBLIC "-//W3C//DTD SVG 20010904//EN"
 "http://www.w3.org/TR/2001/REC-SVG-20010904/DTD/svg10.dtd">
<svg version="1.0" xmlns="http://www.w3.org/2000/svg"
 width="70.000000pt" height="70.000000pt" viewBox="0 0 70.000000 70.000000"
 preserveAspectRatio="xMidYMid meet">

<g transform="translate(0.000000,70.000000) scale(0.100000,-0.100000)"
fill="#000000" stroke="none">
<path d="M340 485 l0 -125 -43 0 c-24 0 -46 -3 -50 -6 -3 -4 12 -33 34 -66 43
-62 66 -115 55 -125 -4 -4 -36 22 -71 57 -35 35 -67 61 -71 58 -9 -10 26 -55
96 -123 l61 -60 74 80 c69 74 88 105 66 105 -5 0 -37 -30 -70 -68 -56 -62 -61
-65 -61 -40 0 16 19 58 45 98 25 39 45 74 45 80 0 5 -19 10 -42 12 l-43 3 -3
123 c-4 163 -22 161 -22 -3z m-4 -159 c3 -8 4 -27 2 -43 l-3 -28 -22 36 c-13
20 -23 39 -23 43 0 12 41 6 46 -8z m56 -26 c-22 -38 -32 -38 -32 0 0 25 4 30
25 30 24 0 24 0 7 -30z"/>
</g>
</svg>
