<?xml version="1.0" standalone="no"?>
<!DOCTYPE svg PUBLIC "-//W3C//DTD SVG 20010904//EN"
 "http://www.w3.org/TR/2001/REC-SVG-20010904/DTD/svg10.dtd">
<svg version="1.0" xmlns="http://www.w3.org/2000/svg"
 width="70.000000pt" height="70.000000pt" viewBox="0 0 70.000000 70.000000"
 preserveAspectRatio="xMidYMid meet">

<g transform="translate(0.000000,70.000000) scale(0.100000,-0.100000)"
fill="#000000" stroke="none">
<path d="M338 603 c-3 -83 -21 -107 -26 -35 -4 53 -22 55 -22 2 0 -48 -6 -49
-95 -15 -36 13 -65 21 -65 17 1 -4 12 -38 25 -77 13 -38 21 -73 19 -77 -3 -4
-23 -8 -45 -8 -21 0 -39 -4 -39 -10 0 -5 20 -10 45 -10 33 0 45 -4 45 -15 0
-12 -16 -15 -80 -15 -47 0 -80 -4 -80 -10 0 -6 33 -10 80 -10 64 0 80 -3 80
-15 0 -11 -12 -15 -45 -15 -25 0 -45 -4 -45 -10 0 -5 19 -10 41 -10 l42 0 -6
-34 c-3 -19 -17 -58 -31 -87 -14 -29 -24 -55 -22 -56 2 -2 28 8 58 22 30 13
69 28 86 31 32 6 32 6 32 -35 0 -54 18 -53 22 2 5 71 23 47 26 -35 2 -43 7
-78 12 -78 5 0 10 35 12 78 3 82 21 106 26 35 4 -54 22 -56 22 -3 0 54 7 53
168 -17 8 -3 5 7 -7 28 -23 40 -52 135 -44 143 4 3 24 6 45 6 21 0 38 5 38 10
0 6 -20 10 -45 10 -33 0 -45 4 -45 15 0 12 16 15 80 15 47 0 80 4 80 10 0 6
-33 10 -80 10 -64 0 -80 3 -80 15 0 11 12 15 45 15 25 0 45 5 45 10 0 6 -18
10 -40 10 -35 0 -40 3 -40 23 0 12 14 51 30 86 30 63 33 83 8 64 -17 -13 -124
-53 -143 -53 -11 0 -15 12 -15 40 0 53 -18 51 -22 -2 -5 -72 -23 -48 -26 35
-2 42 -7 77 -12 77 -5 0 -10 -35 -12 -77z m-104 -88 c64 -19 169 -19 235 1 29
8 55 14 57 11 2 -2 -3 -24 -12 -48 -22 -59 -23 -209 -2 -266 9 -24 13 -43 9
-43 -3 0 -28 7 -55 15 -64 19 -169 19 -235 -1 -29 -8 -55 -14 -57 -11 -2 2 3
24 12 48 22 59 23 209 2 267 -9 23 -13 42 -9 42 3 0 28 -7 55 -15z"/>
</g>
</svg>
