<?xml version="1.0" standalone="no"?>
<!DOCTYPE svg PUBLIC "-//W3C//DTD SVG 20010904//EN"
 "http://www.w3.org/TR/2001/REC-SVG-20010904/DTD/svg10.dtd">
<svg version="1.0" xmlns="http://www.w3.org/2000/svg"
 width="70.000000pt" height="70.000000pt" viewBox="0 0 70.000000 70.000000"
 preserveAspectRatio="xMidYMid meet">

<g transform="translate(0.000000,70.000000) scale(0.100000,-0.100000)"
fill="#000000" stroke="none">
<path d="M275 516 c-35 -15 -95 -80 -95 -102 0 -8 -21 -37 -47 -65 -48 -52
-53 -82 -5 -36 34 32 42 34 42 7 0 -47 59 -119 113 -139 39 -15 101 -14 140 3
36 15 97 79 97 102 0 8 21 37 47 65 48 52 53 82 5 36 -16 -15 -31 -27 -34 -27
-3 0 -9 16 -12 35 -8 43 -59 103 -103 121 -41 17 -109 17 -148 0z m141 -25
c44 -20 77 -65 89 -120 l7 -34 -31 24 c-81 61 -95 69 -131 69 -42 0 -87 -38
-76 -65 5 -14 11 -12 35 14 16 17 35 31 43 31 19 0 97 -52 127 -84 l23 -25
-19 -33 c-60 -103 -224 -93 -274 16 -10 23 -19 49 -19 59 0 17 3 16 30 -5 79
-60 94 -68 130 -68 42 0 87 38 76 65 -5 14 -11 12 -35 -14 -16 -17 -35 -31
-43 -31 -19 0 -97 52 -127 84 l-23 25 20 33 c44 70 122 93 198 59z"/>
<path d="M343 373 c-21 -8 -15 -43 6 -43 11 0 23 5 27 11 8 14 -17 38 -33 32z"/>
</g>
</svg>
