<?xml version="1.0" standalone="no"?>
<!DOCTYPE svg PUBLIC "-//W3C//DTD SVG 20010904//EN"
 "http://www.w3.org/TR/2001/REC-SVG-20010904/DTD/svg10.dtd">
<svg version="1.0" xmlns="http://www.w3.org/2000/svg"
 width="70.000000pt" height="70.000000pt" viewBox="0 0 70.000000 70.000000"
 preserveAspectRatio="xMidYMid meet">

<g transform="translate(0.000000,70.000000) scale(0.100000,-0.100000)"
fill="#000000" stroke="none">
<path d="M340 533 l0 -158 -110 110 c-60 60 -113 106 -117 102 -4 -4 42 -57
102 -117 l110 -110 -158 0 c-103 0 -156 -3 -152 -10 4 -6 68 -10 158 -10 l152
0 -108 -108 c-59 -59 -107 -111 -107 -115 0 -19 26 2 124 100 l106 108 0 -152
c0 -90 4 -154 10 -158 7 -4 10 49 10 152 l0 158 108 -108 c59 -59 111 -107
115 -107 21 0 -3 31 -100 125 l-108 105 158 0 c98 0 157 4 157 10 0 6 -59 10
-157 10 l-158 0 108 108 c59 59 107 111 107 115 0 20 -27 -2 -124 -100 l-106
-107 0 157 c0 98 -4 157 -10 157 -6 0 -10 -59 -10 -157z"/>
</g>
</svg>
