<?xml version="1.0" standalone="no"?>
<!DOCTYPE svg PUBLIC "-//W3C//DTD SVG 20010904//EN"
 "http://www.w3.org/TR/2001/REC-SVG-20010904/DTD/svg10.dtd">
<svg version="1.0" xmlns="http://www.w3.org/2000/svg"
 width="70.000000pt" height="70.000000pt" viewBox="0 0 70.000000 70.000000"
 preserveAspectRatio="xMidYMid meet">

<g transform="translate(0.000000,70.000000) scale(0.100000,-0.100000)"
fill="#000000" stroke="none">
<path d="M240 633 c-65 -23 -152 -113 -174 -181 -31 -92 -15 -198 41 -284 l17
-28 -39 -40 c-54 -55 -36 -63 22 -10 27 24 49 44 51 45 1 1 -13 25 -32 54
-114 170 -27 390 172 432 190 39 362 -135 322 -326 -6 -31 -27 -78 -46 -106
-19 -29 -33 -53 -32 -54 2 -1 24 -21 51 -45 58 -53 76 -45 22 10 l-39 40 17
28 c56 86 72 192 41 284 -23 71 -109 158 -178 181 -61 21 -156 21 -216 0z"/>
</g>
</svg>
