<?xml version="1.0" standalone="no"?>
<!DOCTYPE svg PUBLIC "-//W3C//DTD SVG 20010904//EN"
 "http://www.w3.org/TR/2001/REC-SVG-20010904/DTD/svg10.dtd">
<svg version="1.0" xmlns="http://www.w3.org/2000/svg"
 width="70.000000pt" height="70.000000pt" viewBox="0 0 70.000000 70.000000"
 preserveAspectRatio="xMidYMid meet">

<g transform="translate(0.000000,70.000000) scale(0.100000,-0.100000)"
fill="#000000" stroke="none">
<path d="M340 540 l0 -50 -65 0 -64 0 -3 -62 -3 -63 -47 -3 c-64 -4 -61 -22 3
-22 l51 0 -4 -67 -3 -67 68 3 67 2 0 -50 c0 -28 5 -51 10 -51 6 0 10 23 10 50
l0 50 65 0 65 0 0 65 0 65 50 0 c64 0 66 18 3 22 l-48 3 -3 63 -3 62 -64 0
-65 0 0 50 c0 28 -4 50 -10 50 -5 0 -10 -22 -10 -50z m-5 -125 l0 -50 -50 0
-50 0 -3 39 c-5 60 1 68 55 64 l48 -3 0 -50z m130 0 l0 -50 -50 0 -50 0 -3 39
c-5 60 1 68 55 64 l48 -3 0 -50z m-127 -124 c2 -24 -1 -48 -6 -53 -5 -5 -30
-7 -56 -3 l-46 7 0 42 c0 24 3 46 7 50 4 4 28 6 53 4 l45 -3 3 -44z m127 -6
l0 -50 -50 0 -50 0 -3 53 -3 53 53 -3 53 -3 0 -50z"/>
</g>
</svg>
