<?xml version="1.0" standalone="no"?>
<!DOCTYPE svg PUBLIC "-//W3C//DTD SVG 20010904//EN"
 "http://www.w3.org/TR/2001/REC-SVG-20010904/DTD/svg10.dtd">
<svg version="1.0" xmlns="http://www.w3.org/2000/svg"
 width="150.000000pt" height="150.000000pt" viewBox="0 0 150.000000 150.000000"
 preserveAspectRatio="xMidYMid meet">

<g transform="scale(0.100000,0.100000)"
fill="#000000" stroke="none">
<path d="M327 1136 c-12 -31 16 -36 204 -36 l187 0 4 -87 c8 -151 9 -593 2
-593 -3 0 -84 57 -180 127 l-173 128 99 93 c98 91 126 138 81 130 -25 -4 -243
-216 -238 -231 3 -11 426 -327 437 -327 11 0 434 316 437 327 5 15 -213 227
-238 231 -45 8 -17 -39 81 -130 l99 -93 -173 -128 c-96 -70 -177 -127 -180
-127 -7 0 -6 442 2 593 l4 87 187 0 c188 0 216 5 204 36 -8 21 -838 21 -846 0z"/>
<path d="M155 840 c-40 -45 20 -105 65 -65 25 23 25 47 2 68 -24 22 -45 21
-67 -3z"/>
<path d="M1277 842 c-22 -24 -21 -45 3 -67 45 -40 105 20 65 65 -23 25 -47 25
-68 2z"/>
</g>
</svg>
