<?xml version="1.0" standalone="no"?>
<!DOCTYPE svg PUBLIC "-//W3C//DTD SVG 20010904//EN"
 "http://www.w3.org/TR/2001/REC-SVG-20010904/DTD/svg10.dtd">
<svg version="1.0" xmlns="http://www.w3.org/2000/svg"
 width="150.000000pt" height="150.000000pt" viewBox="0 0 150.000000 150.000000"
 preserveAspectRatio="xMidYMid meet">

<g transform="scale(0.100000,0.100000)"
fill="#000000" stroke="none">
<path d="M737 1115 c-8 -7 -51 -79 -96 -159 l-82 -145 -70 45 c-75 47 -99 54
-99 27 0 -11 28 -36 70 -63 38 -25 70 -48 70 -52 0 -4 -38 -73 -85 -154 -52
-91 -82 -151 -76 -157 5 -5 87 -10 183 -11 l173 -1 3 -93 c2 -83 5 -92 22 -92
17 0 20 9 22 92 l3 93 178 1 c99 1 183 6 188 11 6 6 -24 67 -76 158 -47 81
-84 153 -81 160 2 6 31 29 65 51 36 23 61 46 61 57 0 26 -23 21 -95 -24 -36
-23 -67 -40 -69 -38 -1 2 -40 70 -86 151 -46 81 -90 150 -97 152 -7 3 -19 -1
-26 -9z m177 -334 c86 -150 156 -277 156 -282 0 -5 -138 -9 -316 -9 -258 0
-315 2 -312 13 3 14 312 557 314 554 1 -1 72 -125 158 -276z"/>
</g>
</svg>
