<?xml version="1.0" standalone="no"?>
<!DOCTYPE svg PUBLIC "-//W3C//DTD SVG 20010904//EN"
 "http://www.w3.org/TR/2001/REC-SVG-20010904/DTD/svg10.dtd">
<svg version="1.0" xmlns="http://www.w3.org/2000/svg"
 width="150.000000pt" height="150.000000pt" viewBox="0 0 150.000000 150.000000"
 preserveAspectRatio="xMidYMid meet">

<g transform="translate(0.000000,150.000000) scale(0.100000,-0.100000)"
fill="#000000" stroke="none">
<path d="M735 1278 c-2 -7 -6 -56 -7 -108 l-3 -95 -143 -1 c-79 -1 -145 -4
-149 -7 -3 -4 -6 -70 -7 -149 l-1 -143 -102 -3 c-94 -2 -103 -4 -103 -22 0
-18 9 -20 103 -22 l102 -3 1 -143 c1 -79 4 -145 7 -149 4 -3 70 -6 149 -7
l143 -1 5 -105 c4 -84 8 -105 20 -105 12 0 16 21 20 105 l5 105 143 1 c79 1
145 4 149 7 3 4 6 70 7 149 l1 143 103 3 c93 2 102 4 102 22 0 18 -9 20 -102
22 l-103 3 -1 143 c-1 79 -4 145 -7 149 -4 3 -70 6 -149 7 l-143 1 -5 104 c-3
71 -9 106 -17 109 -7 2 -15 -2 -18 -10z m-140 -368 l-120 -120 -3 107 c-1 59
0 113 2 120 4 10 35 13 123 13 l118 0 -120 -120z m431 107 c2 -7 3 -61 2 -120
l-3 -107 -120 120 -120 120 118 0 c88 0 119 -3 123 -13z m-151 -147 l120 -120
-123 -123 -122 -122 -122 122 -123 123 120 120 c66 66 122 120 125 120 3 0 59
-54 125 -120z m-272 -398 c-59 -1 -113 0 -120 2 -10 4 -13 35 -13 123 l0 118
120 -120 120 -120 -107 -3z m423 11 c-4 -10 -35 -13 -123 -13 l-118 0 120 120
120 120 3 -107 c1 -59 0 -113 -2 -120z"/>
</g>
</svg>
