<?xml version="1.0" standalone="no"?>
<!DOCTYPE svg PUBLIC "-//W3C//DTD SVG 20010904//EN"
 "http://www.w3.org/TR/2001/REC-SVG-20010904/DTD/svg10.dtd">
<svg version="1.0" xmlns="http://www.w3.org/2000/svg"
 width="150.000000pt" height="150.000000pt" viewBox="0 0 150.000000 150.000000"
 preserveAspectRatio="xMidYMid meet">

<g transform="scale(0.100000,0.100000)"
fill="#000000" stroke="none">
<path d="M734 1268 c-58 -40 -88 -95 -104 -191 -16 -93 -8 -120 103 -345 88
-179 92 -190 91 -252 -1 -140 -55 -221 -153 -235 -41 -6 -51 -11 -51 -26 0
-16 7 -19 45 -19 114 0 188 87 210 246 9 72 -3 108 -108 322 -88 179 -92 190
-92 252 1 137 58 222 156 235 39 6 49 11 49 26 0 16 -7 19 -49 19 -38 0 -59
-7 -97 -32z"/>
<path d="M403 1018 c-10 -14 -98 -331 -108 -391 -14 -87 41 -157 125 -157 84
0 139 70 125 157 -10 60 -98 377 -108 391 -5 6 -13 12 -17 12 -4 0 -12 -6 -17
-12z m56 -240 c51 -188 40 -261 -39 -261 -46 0 -70 29 -71 88 -1 47 59 295 71
295 3 0 21 -55 39 -122z"/>
<path d="M1003 1005 c-65 -51 -63 -100 8 -358 45 -163 60 -192 82 -167 13 15
99 317 112 393 14 86 -42 157 -123 157 -35 0 -55 -7 -79 -25z m130 -44 c28
-27 23 -102 -14 -238 -18 -68 -36 -123 -40 -123 -3 0 -20 53 -37 119 -37 136
-41 220 -14 243 35 31 71 31 105 -1z"/>
</g>
</svg>
