<?xml version="1.0" standalone="no"?>
<!DOCTYPE svg PUBLIC "-//W3C//DTD SVG 20010904//EN"
 "http://www.w3.org/TR/2001/REC-SVG-20010904/DTD/svg10.dtd">
<svg version="1.0" xmlns="http://www.w3.org/2000/svg"
 width="150.000000pt" height="150.000000pt" viewBox="0 0 150.000000 150.000000"
 preserveAspectRatio="xMidYMid meet">

<g transform="scale(0.100000,0.100000)"
fill="#000000" stroke="none">
<path d="M708 1290 c-55 -10 -99 -35 -145 -82 -46 -48 -63 -96 -63 -180 0
-128 32 -165 286 -331 124 -81 160 -120 170 -182 15 -101 -19 -180 -98 -232
-36 -25 -51 -28 -117 -28 -97 1 -132 19 -166 85 -30 60 -32 98 -5 150 37 73
102 89 150 37 28 -30 25 -61 -11 -101 -48 -55 -16 -80 34 -28 38 39 50 86 33
126 -22 51 -50 69 -117 74 -58 4 -60 3 -94 -32 -49 -52 -71 -132 -55 -193 31
-109 107 -164 229 -164 81 0 124 15 181 67 62 56 83 105 83 189 -1 131 -33
172 -263 321 -130 84 -165 116 -186 169 -52 137 41 283 187 293 117 9 195 -49
206 -152 14 -120 -102 -202 -167 -119 -28 35 -25 56 11 97 30 34 32 56 4 56
-7 0 -27 -16 -44 -35 -43 -49 -44 -111 -2 -157 24 -27 36 -32 87 -36 54 -4 63
-1 91 22 34 28 73 117 73 164 0 40 -43 124 -78 154 -51 43 -133 61 -214 48z"/>
<path d="M190 992 c0 -26 125 -146 144 -139 28 11 18 31 -47 95 -63 62 -97 78
-97 44z"/>
<path d="M1212 947 c-64 -65 -73 -83 -46 -94 19 -7 144 113 144 139 0 34 -36
18 -98 -45z"/>
<path d="M90 750 c0 -20 4 -20 178 -18 149 3 177 5 177 18 0 13 -28 15 -177
18 -174 2 -178 2 -178 -18z"/>
<path d="M1055 760 c-16 -25 13 -30 181 -30 167 0 174 1 174 20 0 19 -7 20
-174 20 -106 0 -177 -4 -181 -10z"/>
<path d="M252 587 c-62 -63 -78 -97 -44 -97 26 0 146 125 139 144 -11 28 -31
18 -95 -47z"/>
<path d="M1153 634 c-7 -19 113 -144 139 -144 34 0 18 36 -45 98 -65 64 -83
73 -94 46z"/>
</g>
</svg>
